PathFileType	4	(X/Y/Z)	C:/Users/opensim2020/Desktop/walking_exp_matlab/subject06_walking11_run.trc	
DataRate	CameraRate	NumFrames	NumMarkers	Units	OrigDataRate	OrigDataStartFrame	OrigNumFrames	
100.00	100.00	4	46	mm	100.00	278	106	
Frame#	Time	LKNE			RKNE			RFRM			RWRA			RWRB			RELB			RUPA			RSHO			LWRA			RFIN			RFHD			CLAV			RASI			RTHI			LSHO			LTHI			RBHD			C7			LTIB			LANK			LTOE			LBHD			RTIB			RBAK			LHEE			RANK			STRN			RHEE			RTOE			T10			LUPA			LFHD			LPSI			RPSI			LASI			LFRM			LWRB			LFIN			LELB			*39			*40			*41			*42			*43			*44			*45			
		X1	Y1	Z1	X2	Y2	Z2	X3	Y3	Z3	X4	Y4	Z4	X5	Y5	Z5	X6	Y6	Z6	X7	Y7	Z7	X8	Y8	Z8	X9	Y9	Z9	X10	Y10	Z10	X11	Y11	Z11	X12	Y12	Z12	X13	Y13	Z13	X14	Y14	Z14	X15	Y15	Z15	X16	Y16	Z16	X17	Y17	Z17	X18	Y18	Z18	X19	Y19	Z19	X20	Y20	Z20	X21	Y21	Z21	X22	Y22	Z22	X23	Y23	Z23	X24	Y24	Z24	X25	Y25	Z25	X26	Y26	Z26	X27	Y27	Z27	X28	Y28	Z28	X29	Y29	Z29	X30	Y30	Z30	X31	Y31	Z31	X32	Y32	Z32	X33	Y33	Z33	X34	Y34	Z34	X35	Y35	Z35	X36	Y36	Z36	X37	Y37	Z37	X38	Y38	Z38	X39	Y39	Z39	X40	Y40	Z40	X41	Y41	Z41	X42	Y42	Z42	X43	Y43	Z43	X44	Y44	Z44	X45	Y45	Z45	X46	Y46	Z46	

93	0.920	63.04380	1921.63867	523.66205	298.74518	1671.62573	475.67334	425.34555	1808.11780	1084.17944	324.22855	1874.18054	1157.23901	337.33743	1903.75330	1098.60303	485.43661	1728.13306	1099.18274	468.56476	1720.72791	1200.91028	362.74512	1772.59741	1379.16785	2.28712	1777.83276	1168.17139	300.11728	1956.86731	1151.38306	279.48853	1827.60120	1635.66333	197.85498	1809.77722	1352.62646	301.29425	1788.86780	925.31189	333.73981	1686.04553	601.11285	54.59684	1719.40759	1404.92432	28.23927	1835.60107	654.19928	290.98947	1700.77759	1574.66443	213.87579	1699.19250	1430.79907	47.24343	1758.37524	354.40085	65.57597	1633.19861	232.87405	57.92999	1712.85864	112.70466	163.35568	1683.71021	1581.65649	273.92087	1513.17041	261.34583	286.31143	1624.22229	1263.13367	111.54823	1591.45007	243.99527	217.74542	1394.39441	123.80750	181.59198	1839.39600	1171.96301	181.40038	1345.53735	135.05327	180.60994	1509.98755	30.22674	198.38388	1647.43604	1107.42688	-52.46805	1624.78369	1269.01758	147.92656	1810.98987	1648.95154	105.65200	1640.81738	975.82629	275.40698	1643.85400	979.97375	84.23328	1794.71887	932.40399	-75.94329	1682.27185	1130.37463	-20.33920	1780.02246	1101.28223	15.96091	1862.80786	1122.09412	-94.30293	1571.07202	1190.76245				220.66460	1715.45313	1676.37988															 
94	0.930	64.20051	1969.51306	539.29132	298.95450	1695.51404	484.49588	420.02747	1856.26428	1096.19995	318.66699	1915.58215	1174.07422	328.91425	1947.88782	1116.59399	483.90213	1778.57092	1106.77771	468.39633	1769.30493	1208.64001	361.42151	1814.59619	1387.75830	-0.69405	1809.32129	1176.88074	291.26141	1997.33472	1172.32886	278.59735	1866.85486	1643.18823	196.68155	1847.67175	1360.58264	300.69299	1831.95886	931.62738	332.78741	1718.45642	608.61365	55.75672	1754.71375	1412.91943	29.09205	1880.67517	667.42871	290.37064	1739.79468	1582.66040	214.73737	1737.64551	1438.25781	49.35847	1822.18738	354.02014	69.72406	1708.52405	220.85092	65.50331	1797.93176	106.26999	162.89514	1722.53259	1589.80847	276.18121	1528.39978	275.07971	290.00827	1665.56628	1270.41016	115.29038	1665.87952	229.20543	222.40982	1407.19336	139.50598	179.67232	1878.60925	1180.34009	186.48935	1360.97241	152.88272	180.07930	1509.64636	30.06316	201.22775	1687.89929	1114.46008	-49.82669	1656.70020	1279.60742	147.30490	1849.93896	1656.66907	107.14106	1682.26050	984.40198	276.27426	1686.52148	985.84155	84.56557	1836.93945	942.75769	-76.37778	1710.97473	1140.95007	-23.39566	1810.08545	1110.09058	11.49098	1894.11279	1129.42957	-90.81976	1600.00708	1202.61621				220.18886	1754.48901	1684.24438															 
95	0.940	65.21519	2015.23193	553.49078	299.18329	1722.25000	494.66556	415.10800	1903.18848	1108.65820	313.71631	1956.39380	1190.78528	321.25394	1990.62708	1134.29968	482.36996	1828.07507	1115.36951	467.58954	1817.39160	1217.40356	359.94257	1856.34448	1396.91638	-3.06412	1841.92310	1186.07312	283.40671	2036.66357	1192.54077	277.59512	1906.15112	1650.99377	195.42802	1885.68860	1369.04211	300.44513	1875.56421	939.12408	331.74600	1752.28723	617.23468	56.79155	1790.64856	1421.47168	30.20045	1925.38855	680.97888	290.06918	1779.14026	1591.14441	215.52924	1776.15967	1446.19299	52.29904	1884.89197	353.07172	74.85048	1784.33105	209.52365	74.62114	1881.54333	100.10184	162.46913	1761.10657	1598.39282	278.64288	1546.97278	290.34225	294.05591	1707.21704	1278.52344	120.35987	1741.15247	215.62767	227.63864	1425.91052	155.71510	178.39085	1917.84167	1189.39392	191.93544	1381.65259	171.22318	180.20203	1509.09070	29.79780	204.34953	1728.53992	1122.19275	-47.14964	1689.69458	1290.64490	146.40286	1888.79431	1664.78760	108.71667	1724.44531	993.37781	276.84229	1729.97437	992.40778	85.26296	1879.28333	953.66217	-76.23203	1741.08875	1151.67700	-25.87103	1841.68958	1119.37244	8.26067	1926.00806	1137.26367	-87.25378	1630.41113	1214.81091				219.43825	1793.82764	1692.84973															 
96	0.950	65.98511	2059.26465	565.87469	299.03116	1751.45483	505.16434	410.96362	1949.09021	1121.26794	309.55322	1996.30115	1206.75720	314.37238	2032.20923	1151.14258	481.50995	1876.80676	1124.63123	466.13797	1864.78735	1226.72192	358.42072	1897.65674	1406.04822	-4.81306	1875.54480	1195.64087	276.48138	2075.17139	1211.49414	276.61340	1945.58398	1658.79370	194.24237	1923.90137	1377.63782	300.41736	1919.66846	947.58636	330.98898	1787.00415	626.24084	57.75922	1827.21265	1430.13513	30.98580	1969.89185	694.34210	289.32919	1818.26953	1599.98120	216.18457	1814.78137	1454.26721	55.85789	1946.79407	351.46506	81.57687	1860.53247	198.95801	86.01003	1964.18481	94.25985	161.51300	1800.05933	1607.56555	281.72299	1569.87097	305.08411	297.32407	1748.90613	1286.66626	126.43445	1816.71338	203.54016	232.93512	1448.88306	169.01512	177.28775	1956.77966	1198.33130	197.73100	1407.78662	189.62103	180.75851	1508.26428	29.83008	207.85219	1769.16418	1130.16748	-44.50503	1723.65112	1301.69336	145.60423	1928.08154	1672.81274	110.23585	1767.48511	1002.58966	276.77805	1774.31128	999.23132	85.93638	1921.92004	964.82141	-75.90842	1772.76135	1162.33911	-27.58893	1873.99951	1128.95239	5.24593	1959.37354	1145.71289	-83.71794	1662.11475	1226.63892				218.74242	1833.48401	1701.59241															 
